name ./resultDataOpenSim/trcMotMarkerGrf/sub10/grf-15-02.mot
datacolumns 19
datarows 30
range 0.46800000 0.58400000
endheader

                time	     ground_force_vx	     ground_force_vy	     ground_force_vz	     ground_force_px	     ground_force_py	     ground_force_pz	   l_ground_force_vx	   l_ground_force_vy	   l_ground_force_vz	   l_ground_force_px	   l_ground_force_py	   l_ground_force_pz	     ground_torque_x	     ground_torque_y	     ground_torque_z	   l_ground_torque_x	   l_ground_torque_y	   l_ground_torque_z	
          0.46800000	         65.75989545	        651.36398267	        -45.53613376	         -0.78506852	          0.00000000	          0.05070510	          0.00000000	          0.00000000	          0.00000000	          0.00000000	          0.00000000	          0.00000000	          0.00000000	          4.44232881	          0.00000000	          0.00000000	          0.00000000	          0.00000000	
          0.47200000	         69.49644647	        673.77166328	        -46.36193989	         -0.78302478	          0.00000000	          0.05033865	          0.00000000	          0.00000000	          0.00000000	          0.00000000	          0.00000000	          0.00000000	          0.00000000	          4.29364767	          0.00000000	          0.00000000	          0.00000000	          0.00000000	
          0.47600000	         74.14934075	        696.77425165	        -47.02600359	         -0.78123922	          0.00000000	          0.04993673	          0.00000000	          0.00000000	          0.00000000	          0.00000000	          0.00000000	          0.00000000	          0.00000000	          4.12773350	          0.00000000	          0.00000000	          0.00000000	          0.00000000	
          0.48000000	         79.68853440	        719.93981954	        -47.45994434	         -0.77963060	          0.00000000	          0.04952395	          0.00000000	          0.00000000	          0.00000000	          0.00000000	          0.00000000	          0.00000000	          0.00000000	          3.95213514	          0.00000000	          0.00000000	          0.00000000	          0.00000000	
          0.48400000	         85.99582039	        742.94792490	        -47.58209563	         -0.77814531	          0.00000000	          0.04909425	          0.00000000	          0.00000000	          0.00000000	          0.00000000	          0.00000000	          0.00000000	          0.00000000	          3.77931142	          0.00000000	          0.00000000	          0.00000000	          0.00000000	
          0.48800000	         92.93545691	        765.66650838	        -47.27253135	         -0.77683173	          0.00000000	          0.04861073	          0.00000000	          0.00000000	          0.00000000	          0.00000000	          0.00000000	          0.00000000	          0.00000000	          3.62601771	          0.00000000	          0.00000000	          0.00000000	          0.00000000	
          0.49200000	        100.36330762	        787.98914222	        -46.37783213	         -0.77575211	          0.00000000	          0.04803774	          0.00000000	          0.00000000	          0.00000000	          0.00000000	          0.00000000	          0.00000000	          0.00000000	          3.51109607	          0.00000000	          0.00000000	          0.00000000	          0.00000000	
          0.49600000	        108.10290651	        809.62282957	        -44.76719097	         -0.77488616	          0.00000000	          0.04737024	          0.00000000	          0.00000000	          0.00000000	          0.00000000	          0.00000000	          0.00000000	          0.00000000	          3.45204170	          0.00000000	          0.00000000	          0.00000000	          0.00000000	
          0.50000000	        115.99295272	        830.06920953	        -42.38986572	         -0.77412093	          0.00000000	          0.04663116	          0.00000000	          0.00000000	          0.00000000	          0.00000000	          0.00000000	          0.00000000	          0.00000000	          3.46131370	          0.00000000	          0.00000000	          0.00000000	          0.00000000	
          0.50400000	        123.97245906	        848.84139857	        -39.29028843	         -0.77336524	          0.00000000	          0.04584944	          0.00000000	          0.00000000	          0.00000000	          0.00000000	          0.00000000	          0.00000000	          0.00000000	          3.54340497	          0.00000000	          0.00000000	          0.00000000	          0.00000000	
          0.50800000	        132.09039603	        865.69617470	        -35.57969788	         -0.77264284	          0.00000000	          0.04504372	          0.00000000	          0.00000000	          0.00000000	          0.00000000	          0.00000000	          0.00000000	          0.00000000	          3.69335917	          0.00000000	          0.00000000	          0.00000000	          0.00000000	
          0.51200000	        140.42949190	        880.61170178	        -31.41232540	         -0.77203546	          0.00000000	          0.04422023	          0.00000000	          0.00000000	          0.00000000	          0.00000000	          0.00000000	          0.00000000	          0.00000000	          3.89699362	          0.00000000	          0.00000000	          0.00000000	          0.00000000	
          0.51600000	        149.02102928	        893.52938624	        -26.99098962	         -0.77157134	          0.00000000	          0.04339343	          0.00000000	          0.00000000	          0.00000000	          0.00000000	          0.00000000	          0.00000000	          0.00000000	          4.13269930	          0.00000000	          0.00000000	          0.00000000	          0.00000000	
          0.52000000	        157.81440141	        904.17618309	        -22.55652145	         -0.77118467	          0.00000000	          0.04258656	          0.00000000	          0.00000000	          0.00000000	          0.00000000	          0.00000000	          0.00000000	          0.00000000	          4.37438616	          0.00000000	          0.00000000	          0.00000000	          0.00000000	
          0.52400000	        166.70425611	        912.16883476	        -18.34608255	         -0.77079285	          0.00000000	          0.04181991	          0.00000000	          0.00000000	          0.00000000	          0.00000000	          0.00000000	          0.00000000	          0.00000000	          4.59492045	          0.00000000	          0.00000000	          0.00000000	          0.00000000	
          0.52800000	        175.57437506	        917.24392381	        -14.55365014	         -0.77037137	          0.00000000	          0.04110149	          0.00000000	          0.00000000	          0.00000000	          0.00000000	          0.00000000	          0.00000000	          0.00000000	          4.76936472	          0.00000000	          0.00000000	          0.00000000	          0.00000000	
          0.53200000	        184.31608086	        919.34146244	        -11.31492268	         -0.76995982	          0.00000000	          0.04042807	          0.00000000	          0.00000000	          0.00000000	          0.00000000	          0.00000000	          0.00000000	          0.00000000	          4.87753436	          0.00000000	          0.00000000	          0.00000000	          0.00000000	
          0.53600000	        192.82078627	        918.48059744	         -8.71630137	         -0.76960270	          0.00000000	          0.03979402	          0.00000000	          0.00000000	          0.00000000	          0.00000000	          0.00000000	          0.00000000	          0.00000000	          4.90568120	          0.00000000	          0.00000000	          0.00000000	          0.00000000	
          0.54000000	        200.98342965	        914.60387702	         -6.79823628	         -0.76930640	          0.00000000	          0.03919859	          0.00000000	          0.00000000	          0.00000000	          0.00000000	          0.00000000	          0.00000000	          0.00000000	          4.84732126	          0.00000000	          0.00000000	          0.00000000	          0.00000000	
          0.54400000	        208.73618493	        907.56448359	         -5.53370445	         -0.76905195	          0.00000000	          0.03864761	          0.00000000	          0.00000000	          0.00000000	          0.00000000	          0.00000000	          0.00000000	          0.00000000	          4.70326122	          0.00000000	          0.00000000	          0.00000000	          0.00000000	
          0.54800000	        216.08710432	        897.22928988	         -4.81183947	         -0.76884015	          0.00000000	          0.03814746	          0.00000000	          0.00000000	          0.00000000	          0.00000000	          0.00000000	          0.00000000	          0.00000000	          4.48083082	          0.00000000	          0.00000000	          0.00000000	          0.00000000	
          0.55200000	        223.11964519	        883.54005791	         -4.45848742	         -0.76871318	          0.00000000	          0.03770022	          0.00000000	          0.00000000	          0.00000000	          0.00000000	          0.00000000	          0.00000000	          0.00000000	          4.19236860	          0.00000000	          0.00000000	          0.00000000	          0.00000000	
          0.55600000	        229.93960310	        866.45724442	         -4.27326391	         -0.76872909	          0.00000000	          0.03730683	          0.00000000	          0.00000000	          0.00000000	          0.00000000	          0.00000000	          0.00000000	          0.00000000	          3.85317981	          0.00000000	          0.00000000	          0.00000000	          0.00000000	
          0.56000000	        236.60152450	        845.85992324	         -4.04609040	         -0.76892691	          0.00000000	          0.03696953	          0.00000000	          0.00000000	          0.00000000	          0.00000000	          0.00000000	          0.00000000	          0.00000000	          3.47935607	          0.00000000	          0.00000000	          0.00000000	          0.00000000	
          0.56400000	        243.05328904	        821.50778748	         -3.56354619	         -0.76931645	          0.00000000	          0.03668797	          0.00000000	          0.00000000	          0.00000000	          0.00000000	          0.00000000	          0.00000000	          0.00000000	          3.08590063	          0.00000000	          0.00000000	          0.00000000	          0.00000000	
          0.56800000	        249.10940426	        793.08191530	         -2.63486953	         -0.76990112	          0.00000000	          0.03645570	          0.00000000	          0.00000000	          0.00000000	          0.00000000	          0.00000000	          0.00000000	          0.00000000	          2.68555403	          0.00000000	          0.00000000	          0.00000000	          0.00000000	
          0.57200000	        254.45117792	        760.22257698	         -1.12844375	         -0.77070453	          0.00000000	          0.03626186	          0.00000000	          0.00000000	          0.00000000	          0.00000000	          0.00000000	          0.00000000	          0.00000000	          2.28860561	          0.00000000	          0.00000000	          0.00000000	          0.00000000	
          0.57600000	        258.63570738	        722.52663038	          1.00650793	         -0.77174305	          0.00000000	          0.03609775	          0.00000000	          0.00000000	          0.00000000	          0.00000000	          0.00000000	          0.00000000	          0.00000000	          1.90376551	          0.00000000	          0.00000000	          0.00000000	          0.00000000	
          0.58000000	        261.07843723	        679.63261782	          3.73897690	         -0.77298216	          0.00000000	          0.03596060	          0.00000000	          0.00000000	          0.00000000	          0.00000000	          0.00000000	          0.00000000	          0.00000000	          1.53977528	          0.00000000	          0.00000000	          0.00000000	          0.00000000	
          0.58400000	        261.04156704	        631.47331014	          6.97219835	         -0.77434571	          0.00000000	          0.03583626	          0.00000000	          0.00000000	          0.00000000	          0.00000000	          0.00000000	          0.00000000	          0.00000000	          1.20693160	          0.00000000	          0.00000000	          0.00000000	          0.00000000	
